<svg width="1280" height="360" viewBox="0 0 1280 360" fill="none" xmlns="http://www.w3.org/2000/svg">
  <defs>
    <linearGradient id="bg" x1="0" y1="0" x2="1280" y2="360" gradientUnits="userSpaceOnUse">
      <stop offset="0" stop-color="#F7F7F5"/>
      <stop offset="1" stop-color="#E8EEF1"/>
    </linearGradient>
    <linearGradient id="gold" x1="82" y1="46" x2="206" y2="208" gradientUnits="userSpaceOnUse">
      <stop offset="0" stop-color="#F0D79A"/>
      <stop offset="1" stop-color="#B88945"/>
    </linearGradient>
    <linearGradient id="teal" x1="42" y1="68" x2="190" y2="232" gradientUnits="userSpaceOnUse">
      <stop offset="0" stop-color="#154E72"/>
      <stop offset="0.55" stop-color="#1D7E95"/>
      <stop offset="1" stop-color="#163F63"/>
    </linearGradient>
    <linearGradient id="emerald" x1="120" y1="118" x2="220" y2="232" gradientUnits="userSpaceOnUse">
      <stop offset="0" stop-color="#138B79"/>
      <stop offset="1" stop-color="#0E5E52"/>
    </linearGradient>
    <linearGradient id="pink" x1="88" y1="106" x2="176" y2="196" gradientUnits="userSpaceOnUse">
      <stop offset="0" stop-color="#D24B55"/>
      <stop offset="1" stop-color="#8F2148"/>
    </linearGradient>
    <linearGradient id="navy" x1="222" y1="64" x2="320" y2="250" gradientUnits="userSpaceOnUse">
      <stop offset="0" stop-color="#0D5C84"/>
      <stop offset="1" stop-color="#113A63"/>
    </linearGradient>
    <linearGradient id="textBlue" x1="470" y1="90" x2="1110" y2="250" gradientUnits="userSpaceOnUse">
      <stop offset="0" stop-color="#123F66"/>
      <stop offset="1" stop-color="#0F4F80"/>
    </linearGradient>
  </defs>

  <rect width="1280" height="360" fill="url(#bg)"/>

  <ellipse cx="120" cy="242" rx="94" ry="12" fill="#0A1624" fill-opacity="0.10"/>
  <circle cx="144" cy="156" r="98" fill="none" stroke="url(#gold)" stroke-width="6" stroke-opacity="0.95"/>
  <path d="M144 60L176 114H112L144 60Z" fill="url(#teal)"/>
  <path d="M52 166L104 76L144 132L52 166Z" fill="url(#pink)"/>
  <path d="M236 166L184 76L144 132L236 166Z" fill="url(#emerald)"/>
  <path d="M80 84L144 60L208 84" stroke="url(#gold)" stroke-width="6" stroke-linecap="round"/>
  <path d="M64 232L144 156L224 232" stroke="url(#gold)" stroke-width="6" stroke-linecap="round"/>
  <path d="M144 86L144 226" stroke="url(#gold)" stroke-width="5" stroke-linecap="round" stroke-dasharray="14 14"/>

  <path d="M138 168L192 114L244 114L190 168L138 168Z" fill="url(#navy)"/>
  <path d="M190 168L244 168L244 220L190 168Z" fill="#124B73"/>
  <path d="M190 114L244 114L244 168L190 114Z" fill="#1B6789"/>
  <path d="M170 186L214 186L214 250L170 222V186Z" fill="url(#navy)"/>
  <path d="M214 186L258 186L258 238L214 250V186Z" fill="#0E5B82"/>
  <path d="M258 186L302 186L302 250L258 238V186Z" fill="#1A7591"/>

  <path d="M306 108L332 132L332 220L306 196V108Z" fill="#0F4F80"/>
  <path d="M332 132L360 108L360 196L332 220V132Z" fill="#166C8D"/>
  <path d="M306 108L332 132L360 108L334 84L306 108Z" fill="url(#gold)"/>
  <path d="M319 144H347" stroke="#D8EDF2" stroke-width="8" stroke-linecap="round"/>
  <path d="M319 168H347" stroke="#D8EDF2" stroke-width="8" stroke-linecap="round"/>
  <path d="M319 192H347" stroke="#D8EDF2" stroke-width="8" stroke-linecap="round"/>

  <text x="406" y="118" fill="url(#textBlue)" font-family="Arial, Helvetica, sans-serif" font-size="74" font-weight="900" letter-spacing="0.2">SYSTÈME DE REVUE</text>
  <text x="406" y="214" fill="url(#textBlue)" font-family="Arial, Helvetica, sans-serif" font-size="84" font-weight="900" letter-spacing="0.2">INTELLIGENTE</text>
  <text x="410" y="278" fill="#143F66" font-family="Arial, Helvetica, sans-serif" font-size="34" font-weight="700" letter-spacing="0.8">INTELLIGENT REVIEW SYSTEM</text>
  <text x="950" y="332" fill="#324659" fill-opacity="0.55" font-family="Arial, Helvetica, sans-serif" font-size="18" font-weight="600" letter-spacing="1.2">PROFESSIONAL SYSTEM LOGO</text>
</svg>
